<?xml version="1.0" encoding="UTF-8" standalone="no"?><!DOCTYPE svg PUBLIC "-//W3C//DTD SVG 1.1//EN" "http://www.w3.org/Graphics/SVG/1.1/DTD/svg11.dtd"><!-- Generated by graphviz version 2.40.1 (20161225.0304)
 --><!-- Title: %0 Pages: 1 --><svg xmlns="http://www.w3.org/2000/svg" xmlns:xlink="http://www.w3.org/1999/xlink" width="1612pt" height="711pt" viewBox="0.00 0.00 1611.57 711.20">
<g id="graph0" class="graph" transform="scale(1 1) rotate(0) translate(4 707.2)">
<title>%0</title>
<polygon fill="#ffffff" stroke="transparent" points="-4,4 -4,-707.2 1607.5725,-707.2 1607.5725,4 -4,4"/>
<!-- _5297565904 -->
<g id="node1" class="node">
<title>_5297565904</title>
<polygon fill="none" stroke="#000000" points="1127.1107,-703.4014 892.8482,-703.4014 892.8482,-644.5986 1127.1107,-644.5986 1127.1107,-703.4014"/>
<text text-anchor="middle" x="1009.9794" y="-686.6" font-family="Times,serif" font-size="14.00" fill="#000000">MXUPHL:5000-2000 m above ground</text>
<text text-anchor="middle" x="1009.9794" y="-669.8" font-family="Times,serif" font-size="14.00" fill="#000000">estimated from probs, 50mi mean</text>
<text text-anchor="middle" x="1009.9794" y="-653" font-family="Times,serif" font-size="14.00" fill="#000000">+1hr</text>
</g>
<!-- _5297563600 -->
<g id="node2" class="node">
<title>_5297563600</title>
<polygon fill="none" stroke="#000000" points="1022.4958,-592.2014 665.4631,-592.2014 665.4631,-533.3986 1022.4958,-533.3986 1022.4958,-592.2014"/>
<text text-anchor="middle" x="843.9794" y="-575.4" font-family="Times,serif" font-size="14.00" fill="#000000">sqrt(SBCAPE)*BWD0-6km*HLCY3000-0m*(200+SBCIN)</text>
<text text-anchor="middle" x="843.9794" y="-558.6" font-family="Times,serif" font-size="14.00" fill="#000000">25mi mean</text>
<text text-anchor="middle" x="843.9794" y="-541.8" font-family="Times,serif" font-size="14.00" fill="#000000">3hr mean</text>
</g>
<!-- _5297565904&#45;&gt;_5297563600 -->
<g id="edge1" class="edge">
<title>_5297565904-&gt;_5297563600</title>
<path fill="none" stroke="#000000" d="M966.3649,-644.7835C944.8147,-630.3475 918.6531,-612.8223 896.0585,-597.6867"/>
<polygon fill="#000000" stroke="#000000" points="897.8467,-594.6719 887.5906,-592.0142 893.9508,-600.4876 897.8467,-594.6719"/>
<text text-anchor="middle" x="949.6767" y="-614.2" font-family="Times,serif" font-size="14.00" fill="#000000">&lt;1.3</text>
</g>
<!-- _5297565760 -->
<g id="node3" class="node">
<title>_5297565760</title>
<polygon fill="none" stroke="#000000" points="1353.5566,-583.4019 1082.4022,-583.4019 1082.4022,-542.1981 1353.5566,-542.1981 1353.5566,-583.4019"/>
<text text-anchor="middle" x="1217.9794" y="-567" font-family="Times,serif" font-size="14.00" fill="#000000">sqrt(SBCAPE)*BWD0-6km*HLCY3000-0m</text>
<text text-anchor="middle" x="1217.9794" y="-550.2" font-family="Times,serif" font-size="14.00" fill="#000000">100mi mean</text>
</g>
<!-- _5297565904&#45;&gt;_5297565760 -->
<g id="edge2" class="edge">
<title>_5297565904-&gt;_5297565760</title>
<path fill="none" stroke="#000000" d="M1064.629,-644.7835C1097.3847,-627.2718 1138.643,-605.2145 1170.1116,-588.3909"/>
<polygon fill="#000000" stroke="#000000" points="1171.9582,-591.3725 1179.1269,-583.5712 1168.6579,-585.1993 1171.9582,-591.3725"/>
<text text-anchor="middle" x="1142.7294" y="-614.2" font-family="Times,serif" font-size="14.00" fill="#000000">≥1.3</text>
</g>
<!-- _5297370352 -->
<g id="node4" class="node">
<title>_5297370352</title>
<polygon fill="none" stroke="#000000" points="687.0487,-481.0014 482.9102,-481.0014 482.9102,-422.1986 687.0487,-422.1986 687.0487,-481.0014"/>
<text text-anchor="middle" x="584.9794" y="-464.2" font-family="Times,serif" font-size="14.00" fill="#000000">MAXREF:1000 m above ground</text>
<text text-anchor="middle" x="584.9794" y="-447.4" font-family="Times,serif" font-size="14.00" fill="#000000">estimated from probs, 25mi mean</text>
<text text-anchor="middle" x="584.9794" y="-430.6" font-family="Times,serif" font-size="14.00" fill="#000000">3hr mean</text>
</g>
<!-- _5297563600&#45;&gt;_5297370352 -->
<g id="edge3" class="edge">
<title>_5297563600-&gt;_5297370352</title>
<path fill="none" stroke="#000000" d="M775.9302,-533.5835C741.1218,-518.6387 698.6023,-500.3832 662.5294,-484.8956"/>
<polygon fill="#000000" stroke="#000000" points="663.5931,-481.5434 653.0233,-480.8142 660.8314,-487.9756 663.5931,-481.5434"/>
<text text-anchor="middle" x="750.284" y="-503" font-family="Times,serif" font-size="14.00" fill="#000000">&lt;8.8e6</text>
</g>
<!-- _5297563456 -->
<g id="node5" class="node">
<title>_5297563456</title>
<polygon fill="none" stroke="#000000" points="949.5487,-481.0014 738.4102,-481.0014 738.4102,-422.1986 949.5487,-422.1986 949.5487,-481.0014"/>
<text text-anchor="middle" x="843.9794" y="-464.2" font-family="Times,serif" font-size="14.00" fill="#000000">1km reflectivity</text>
<text text-anchor="middle" x="843.9794" y="-447.4" font-family="Times,serif" font-size="14.00" fill="#000000">estimated from probs, 100mi mean</text>
<text text-anchor="middle" x="843.9794" y="-430.6" font-family="Times,serif" font-size="14.00" fill="#000000">+1hr</text>
</g>
<!-- _5297563600&#45;&gt;_5297563456 -->
<g id="edge4" class="edge">
<title>_5297563600-&gt;_5297563456</title>
<path fill="none" stroke="#000000" d="M843.9794,-533.5835C843.9794,-520.6614 843.9794,-505.2642 843.9794,-491.3212"/>
<polygon fill="#000000" stroke="#000000" points="847.4795,-491.0074 843.9794,-481.0074 840.4795,-491.0075 847.4795,-491.0074"/>
<text text-anchor="middle" x="866.3367" y="-503" font-family="Times,serif" font-size="14.00" fill="#000000">≥8.8e6</text>
</g>
<!-- _5297564320 -->
<g id="node26" class="node">
<title>_5297564320</title>
<polygon fill="none" stroke="#000000" points="1299.0306,-481.0014 1136.9282,-481.0014 1136.9282,-422.1986 1299.0306,-422.1986 1299.0306,-481.0014"/>
<text text-anchor="middle" x="1217.9794" y="-464.2" font-family="Times,serif" font-size="14.00" fill="#000000">AbsVorticity850mb*10^5</text>
<text text-anchor="middle" x="1217.9794" y="-447.4" font-family="Times,serif" font-size="14.00" fill="#000000">100mi mean</text>
<text text-anchor="middle" x="1217.9794" y="-430.6" font-family="Times,serif" font-size="14.00" fill="#000000">3hr max</text>
</g>
<!-- _5297565760&#45;&gt;_5297564320 -->
<g id="edge25" class="edge">
<title>_5297565760-&gt;_5297564320</title>
<path fill="none" stroke="#000000" d="M1217.9794,-542.1447C1217.9794,-527.893 1217.9794,-508.4899 1217.9794,-491.3004"/>
<polygon fill="#000000" stroke="#000000" points="1221.4795,-490.9494 1217.9794,-480.9494 1214.4795,-490.9495 1221.4795,-490.9494"/>
<text text-anchor="middle" x="1244.6767" y="-503" font-family="Times,serif" font-size="14.00" fill="#000000">&lt;24000.0</text>
</g>
<!-- _5297565616 -->
<g id="node27" class="node">
<title>_5297565616</title>
<polygon fill="none" stroke="#000000" points="1501.4248,-481.0014 1338.534,-481.0014 1338.534,-422.1986 1501.4248,-422.1986 1501.4248,-481.0014"/>
<text text-anchor="middle" x="1419.9794" y="-464.2" font-family="Times,serif" font-size="14.00" fill="#000000">Flight category</text>
<text text-anchor="middle" x="1419.9794" y="-447.4" font-family="Times,serif" font-size="14.00" fill="#000000">prob &gt;=4 &lt;0, 100mi mean</text>
<text text-anchor="middle" x="1419.9794" y="-430.6" font-family="Times,serif" font-size="14.00" fill="#000000">+1hr</text>
</g>
<!-- _5297565760&#45;&gt;_5297565616 -->
<g id="edge26" class="edge">
<title>_5297565760-&gt;_5297565616</title>
<path fill="none" stroke="#000000" d="M1255.5007,-542.1447C1284.1984,-526.3468 1324.3944,-504.2191 1357.8657,-485.7933"/>
<polygon fill="#000000" stroke="#000000" points="1359.5924,-488.8381 1366.6648,-480.9494 1356.2166,-482.7059 1359.5924,-488.8381"/>
<text text-anchor="middle" x="1361.7294" y="-503" font-family="Times,serif" font-size="14.00" fill="#000000">≥24000.0</text>
</g>
<!-- _5297358016 -->
<g id="node6" class="node">
<title>_5297358016</title>
<polygon fill="none" stroke="#000000" points="388.9035,-369.8014 213.0553,-369.8014 213.0553,-310.9986 388.9035,-310.9986 388.9035,-369.8014"/>
<text text-anchor="middle" x="300.9794" y="-353" font-family="Times,serif" font-size="14.00" fill="#000000">sqrt(SBCAPE)*BWD0-6km</text>
<text text-anchor="middle" x="300.9794" y="-336.2" font-family="Times,serif" font-size="14.00" fill="#000000">50mi forward grad</text>
<text text-anchor="middle" x="300.9794" y="-319.4" font-family="Times,serif" font-size="14.00" fill="#000000">3hr delta</text>
</g>
<!-- _5297370352&#45;&gt;_5297358016 -->
<g id="edge5" class="edge">
<title>_5297370352-&gt;_5297358016</title>
<path fill="none" stroke="#000000" d="M510.3618,-422.3835C471.8686,-407.3115 424.7755,-388.8723 385.0066,-373.3008"/>
<polygon fill="#000000" stroke="#000000" points="386.1791,-370.0012 375.5913,-369.6142 383.6268,-376.5193 386.1791,-370.0012"/>
<text text-anchor="middle" x="477.1767" y="-391.8" font-family="Times,serif" font-size="14.00" fill="#000000">&lt;23.0</text>
</g>
<!-- _5297358736 -->
<g id="node7" class="node">
<title>_5297358736</title>
<polygon fill="none" stroke="#000000" points="763.4958,-369.8014 406.4631,-369.8014 406.4631,-310.9986 763.4958,-310.9986 763.4958,-369.8014"/>
<text text-anchor="middle" x="584.9794" y="-353" font-family="Times,serif" font-size="14.00" fill="#000000">sqrt(SBCAPE)*BWD0-6km*HLCY3000-0m*(200+SBCIN)</text>
<text text-anchor="middle" x="584.9794" y="-336.2" font-family="Times,serif" font-size="14.00" fill="#000000">25mi mean</text>
<text text-anchor="middle" x="584.9794" y="-319.4" font-family="Times,serif" font-size="14.00" fill="#000000">3hr mean</text>
</g>
<!-- _5297370352&#45;&gt;_5297358736 -->
<g id="edge6" class="edge">
<title>_5297370352-&gt;_5297358736</title>
<path fill="none" stroke="#000000" d="M584.9794,-422.3835C584.9794,-409.4614 584.9794,-394.0642 584.9794,-380.1212"/>
<polygon fill="#000000" stroke="#000000" points="588.4795,-379.8074 584.9794,-369.8074 581.4795,-379.8075 588.4795,-379.8074"/>
<text text-anchor="middle" x="604.2294" y="-391.8" font-family="Times,serif" font-size="14.00" fill="#000000">≥23.0</text>
</g>
<!-- _5296939952 -->
<g id="node18" class="node">
<title>_5296939952</title>
<ellipse fill="none" stroke="#000000" cx="822.9794" cy="-340.4" rx="40.6167" ry="18"/>
<text text-anchor="middle" x="822.9794" y="-336.2" font-family="Times,serif" font-size="14.00" fill="#000000">-0.0057</text>
</g>
<!-- _5297563456&#45;&gt;_5296939952 -->
<g id="edge17" class="edge">
<title>_5297563456-&gt;_5296939952</title>
<path fill="none" stroke="#000000" d="M838.4619,-422.3835C835.3318,-405.8086 831.4326,-385.1615 828.3303,-368.7344"/>
<polygon fill="#000000" stroke="#000000" points="831.7179,-367.8108 826.4229,-358.634 824.8395,-369.1098 831.7179,-367.8108"/>
<text text-anchor="middle" x="847.6767" y="-391.8" font-family="Times,serif" font-size="14.00" fill="#000000">&lt;6.9</text>
</g>
<!-- _5297563312 -->
<g id="node19" class="node">
<title>_5297563312</title>
<polygon fill="none" stroke="#000000" points="967.9752,-369.8014 881.9836,-369.8014 881.9836,-310.9986 967.9752,-310.9986 967.9752,-369.8014"/>
<text text-anchor="middle" x="924.9794" y="-353" font-family="Times,serif" font-size="14.00" fill="#000000">Wind700mb</text>
<text text-anchor="middle" x="924.9794" y="-336.2" font-family="Times,serif" font-size="14.00" fill="#000000">25mi mean</text>
<text text-anchor="middle" x="924.9794" y="-319.4" font-family="Times,serif" font-size="14.00" fill="#000000">+1hr</text>
</g>
<!-- _5297563456&#45;&gt;_5297563312 -->
<g id="edge18" class="edge">
<title>_5297563456-&gt;_5297563312</title>
<path fill="none" stroke="#000000" d="M865.2612,-422.3835C875.1353,-408.828 886.9934,-392.5487 897.5314,-378.0817"/>
<polygon fill="#000000" stroke="#000000" points="900.4998,-379.9512 903.5585,-369.8074 894.8417,-375.8297 900.4998,-379.9512"/>
<text text-anchor="middle" x="905.7294" y="-391.8" font-family="Times,serif" font-size="14.00" fill="#000000">≥6.9</text>
</g>
<!-- _5297357728 -->
<g id="node8" class="node">
<title>_5297357728</title>
<polygon fill="none" stroke="#000000" points="295.1107,-249.8019 60.8482,-249.8019 60.8482,-208.5981 295.1107,-208.5981 295.1107,-249.8019"/>
<text text-anchor="middle" x="177.9794" y="-233.4" font-family="Times,serif" font-size="14.00" fill="#000000">MXUPHL:5000-2000 m above ground</text>
<text text-anchor="middle" x="177.9794" y="-216.6" font-family="Times,serif" font-size="14.00" fill="#000000">estimated from probs, 25mi mean</text>
</g>
<!-- _5297358016&#45;&gt;_5297357728 -->
<g id="edge7" class="edge">
<title>_5297358016-&gt;_5297357728</title>
<path fill="none" stroke="#000000" d="M268.6626,-311.1835C250.1031,-294.4045 226.9276,-273.4523 208.6514,-256.9294"/>
<polygon fill="#000000" stroke="#000000" points="210.9116,-254.2545 201.1464,-250.1444 206.2171,-259.447 210.9116,-254.2545"/>
<text text-anchor="middle" x="266.6767" y="-280.6" font-family="Times,serif" font-size="14.00" fill="#000000">&lt;220.0</text>
</g>
<!-- _5296903264 -->
<g id="node9" class="node">
<title>_5296903264</title>
<ellipse fill="none" stroke="#000000" cx="354.9794" cy="-229.2" rx="42.3433" ry="18"/>
<text text-anchor="middle" x="354.9794" y="-225" font-family="Times,serif" font-size="14.00" fill="#000000">0.00075</text>
</g>
<!-- _5297358016&#45;&gt;_5296903264 -->
<g id="edge8" class="edge">
<title>_5297358016-&gt;_5296903264</title>
<path fill="none" stroke="#000000" d="M315.1673,-311.1835C323.4218,-294.1853 333.7562,-272.9042 341.827,-256.2842"/>
<polygon fill="#000000" stroke="#000000" points="345.0647,-257.6292 346.2847,-247.1048 338.7679,-254.5713 345.0647,-257.6292"/>
<text text-anchor="middle" x="354.7294" y="-280.6" font-family="Times,serif" font-size="14.00" fill="#000000">≥220.0</text>
</g>
<!-- _5297358448 -->
<g id="node14" class="node">
<title>_5297358448</title>
<polygon fill="none" stroke="#000000" points="547.5405,-258.6014 456.4184,-258.6014 456.4184,-199.7986 547.5405,-199.7986 547.5405,-258.6014"/>
<text text-anchor="middle" x="501.9794" y="-241.8" font-family="Times,serif" font-size="14.00" fill="#000000">TMP:925 mb</text>
<text text-anchor="middle" x="501.9794" y="-225" font-family="Times,serif" font-size="14.00" fill="#000000">25mi mean</text>
<text text-anchor="middle" x="501.9794" y="-208.2" font-family="Times,serif" font-size="14.00" fill="#000000">3hr min</text>
</g>
<!-- _5297358736&#45;&gt;_5297358448 -->
<g id="edge13" class="edge">
<title>_5297358736-&gt;_5297358448</title>
<path fill="none" stroke="#000000" d="M563.1722,-311.1835C553.0543,-297.628 540.9034,-281.3487 530.1052,-266.8817"/>
<polygon fill="#000000" stroke="#000000" points="532.7156,-264.5277 523.9292,-258.6074 527.106,-268.7148 532.7156,-264.5277"/>
<text text-anchor="middle" x="568.284" y="-280.6" font-family="Times,serif" font-size="14.00" fill="#000000">&lt;3.4e6</text>
</g>
<!-- _5296903504 -->
<g id="node15" class="node">
<title>_5296903504</title>
<ellipse fill="none" stroke="#000000" cx="602.9794" cy="-229.2" rx="37.6864" ry="18"/>
<text text-anchor="middle" x="602.9794" y="-225" font-family="Times,serif" font-size="14.00" fill="#000000">0.0058</text>
</g>
<!-- _5297358736&#45;&gt;_5296903504 -->
<g id="edge14" class="edge">
<title>_5297358736-&gt;_5296903504</title>
<path fill="none" stroke="#000000" d="M589.7087,-311.1835C592.3917,-294.6086 595.7339,-273.9615 598.3929,-257.5344"/>
<polygon fill="#000000" stroke="#000000" points="601.8849,-257.8648 600.0279,-247.434 594.9749,-256.7462 601.8849,-257.8648"/>
<text text-anchor="middle" x="618.3367" y="-280.6" font-family="Times,serif" font-size="14.00" fill="#000000">≥3.4e6</text>
</g>
<!-- _5297181968 -->
<g id="node10" class="node">
<title>_5297181968</title>
<polygon fill="none" stroke="#000000" points="168.1023,-147.4014 3.8566,-147.4014 3.8566,-88.5986 168.1023,-88.5986 168.1023,-147.4014"/>
<text text-anchor="middle" x="85.9794" y="-130.6" font-family="Times,serif" font-size="14.00" fill="#000000">RETOP:entire atmosphere</text>
<text text-anchor="middle" x="85.9794" y="-113.8" font-family="Times,serif" font-size="14.00" fill="#000000">prob &gt;9144, 25mi mean</text>
<text text-anchor="middle" x="85.9794" y="-97" font-family="Times,serif" font-size="14.00" fill="#000000">+1hr</text>
</g>
<!-- _5297357728&#45;&gt;_5297181968 -->
<g id="edge9" class="edge">
<title>_5297357728-&gt;_5297181968</title>
<path fill="none" stroke="#000000" d="M160.8905,-208.5447C148.5433,-193.6207 131.5227,-173.0479 116.8255,-155.2835"/>
<polygon fill="#000000" stroke="#000000" points="119.3326,-152.8232 110.2613,-147.3494 113.9392,-157.2854 119.3326,-152.8232"/>
<text text-anchor="middle" x="150.6767" y="-169.4" font-family="Times,serif" font-size="14.00" fill="#000000">&lt;2.2</text>
</g>
<!-- _5296883600 -->
<g id="node11" class="node">
<title>_5296883600</title>
<ellipse fill="none" stroke="#000000" cx="224.9794" cy="-118" rx="38.8055" ry="18"/>
<text text-anchor="middle" x="224.9794" y="-113.8" font-family="Times,serif" font-size="14.00" fill="#000000">-1.5e-5</text>
</g>
<!-- _5297357728&#45;&gt;_5296883600 -->
<g id="edge10" class="edge">
<title>_5297357728-&gt;_5296883600</title>
<path fill="none" stroke="#000000" d="M186.7096,-208.5447C194.2494,-190.706 205.2003,-164.7965 213.4579,-145.2594"/>
<polygon fill="#000000" stroke="#000000" points="216.7138,-146.5461 217.3832,-135.9724 210.2661,-143.8208 216.7138,-146.5461"/>
<text text-anchor="middle" x="220.7294" y="-169.4" font-family="Times,serif" font-size="14.00" fill="#000000">≥2.2</text>
</g>
<!-- _5296798336 -->
<g id="node12" class="node">
<title>_5296798336</title>
<ellipse fill="none" stroke="#000000" cx="35.9794" cy="-18" rx="35.9589" ry="18"/>
<text text-anchor="middle" x="35.9794" y="-13.8" font-family="Times,serif" font-size="14.00" fill="#000000">-0.035</text>
</g>
<!-- _5297181968&#45;&gt;_5296798336 -->
<g id="edge11" class="edge">
<title>_5297181968-&gt;_5296798336</title>
<path fill="none" stroke="#000000" d="M71.2482,-88.5376C64.3406,-74.7223 56.167,-58.3751 49.4285,-44.8982"/>
<polygon fill="#000000" stroke="#000000" points="52.4168,-43.0484 44.8141,-35.6693 46.1558,-46.1789 52.4168,-43.0484"/>
<text text-anchor="middle" x="77.1767" y="-58.2" font-family="Times,serif" font-size="14.00" fill="#000000">&lt;42.0</text>
</g>
<!-- _5296798416 -->
<g id="node13" class="node">
<title>_5296798416</title>
<ellipse fill="none" stroke="#000000" cx="135.9794" cy="-18" rx="45.7732" ry="18"/>
<text text-anchor="middle" x="135.9794" y="-13.8" font-family="Times,serif" font-size="14.00" fill="#000000">-0.00045</text>
</g>
<!-- _5297181968&#45;&gt;_5296798416 -->
<g id="edge12" class="edge">
<title>_5297181968-&gt;_5296798416</title>
<path fill="none" stroke="#000000" d="M100.7106,-88.5376C107.6183,-74.7223 115.7919,-58.3751 122.5304,-44.8982"/>
<polygon fill="#000000" stroke="#000000" points="125.8031,-46.1789 127.1448,-35.6693 119.5421,-43.0484 125.8031,-46.1789"/>
<text text-anchor="middle" x="136.2294" y="-58.2" font-family="Times,serif" font-size="14.00" fill="#000000">≥42.0</text>
</g>
<!-- _5296903344 -->
<g id="node16" class="node">
<title>_5296903344</title>
<ellipse fill="none" stroke="#000000" cx="451.9794" cy="-118" rx="40.6167" ry="18"/>
<text text-anchor="middle" x="451.9794" y="-113.8" font-family="Times,serif" font-size="14.00" fill="#000000">-0.0066</text>
</g>
<!-- _5297358448&#45;&gt;_5296903344 -->
<g id="edge15" class="edge">
<title>_5297358448-&gt;_5296903344</title>
<path fill="none" stroke="#000000" d="M488.8425,-199.9835C481.1995,-182.9853 471.6306,-161.7042 464.1576,-145.0842"/>
<polygon fill="#000000" stroke="#000000" points="467.3233,-143.5899 460.0301,-135.9048 460.939,-146.4606 467.3233,-143.5899"/>
<text text-anchor="middle" x="499.6767" y="-169.4" font-family="Times,serif" font-size="14.00" fill="#000000">&lt;300.0</text>
</g>
<!-- _5296903424 -->
<g id="node17" class="node">
<title>_5296903424</title>
<ellipse fill="none" stroke="#000000" cx="552.9794" cy="-118" rx="42.3433" ry="18"/>
<text text-anchor="middle" x="552.9794" y="-113.8" font-family="Times,serif" font-size="14.00" fill="#000000">0.00066</text>
</g>
<!-- _5297358448&#45;&gt;_5296903424 -->
<g id="edge16" class="edge">
<title>_5297358448-&gt;_5296903424</title>
<path fill="none" stroke="#000000" d="M515.3791,-199.9835C523.175,-182.9853 532.9352,-161.7042 540.5577,-145.0842"/>
<polygon fill="#000000" stroke="#000000" points="543.7802,-146.4535 544.7677,-135.9048 537.4175,-143.5353 543.7802,-146.4535"/>
<text text-anchor="middle" x="553.7294" y="-169.4" font-family="Times,serif" font-size="14.00" fill="#000000">≥300.0</text>
</g>
<!-- _5296940032 -->
<g id="node20" class="node">
<title>_5296940032</title>
<ellipse fill="none" stroke="#000000" cx="720.9794" cy="-229.2" rx="45.7732" ry="18"/>
<text text-anchor="middle" x="720.9794" y="-225" font-family="Times,serif" font-size="14.00" fill="#000000">-0.00043</text>
</g>
<!-- _5297563312&#45;&gt;_5296940032 -->
<g id="edge19" class="edge">
<title>_5297563312-&gt;_5296940032</title>
<path fill="none" stroke="#000000" d="M881.8815,-316.1226C878.8721,-314.4509 875.8824,-312.7969 872.9794,-311.2 829.6306,-287.3537 818.5171,-281.8998 774.9794,-258.4 769.1938,-255.2772 763.061,-251.9639 757.0842,-248.7332"/>
<polygon fill="#000000" stroke="#000000" points="758.3542,-245.441 747.8929,-243.7636 755.0249,-251.5986 758.3542,-245.441"/>
<text text-anchor="middle" x="852.6767" y="-280.6" font-family="Times,serif" font-size="14.00" fill="#000000">&lt;8.7</text>
</g>
<!-- _5297563168 -->
<g id="node21" class="node">
<title>_5297563168</title>
<polygon fill="none" stroke="#000000" points="1065.6521,-257.8014 784.3068,-257.8014 784.3068,-200.5986 1065.6521,-200.5986 1065.6521,-257.8014"/>
<text text-anchor="middle" x="924.9794" y="-241.4" font-family="Times,serif" font-size="14.00" fill="#000000">MUCAPE*700-500mbLapseRate*BWD0-6km</text>
<text text-anchor="middle" x="924.9794" y="-208.6" font-family="Times,serif" font-size="14.00" fill="#000000">3hr mean</text>
</g>
<!-- _5297563312&#45;&gt;_5297563168 -->
<g id="edge20" class="edge">
<title>_5297563312-&gt;_5297563168</title>
<path fill="none" stroke="#000000" d="M924.9794,-311.1835C924.9794,-297.9276 924.9794,-282.0671 924.9794,-267.8436"/>
<polygon fill="#000000" stroke="#000000" points="928.4795,-267.8367 924.9794,-257.8368 921.4795,-267.8368 928.4795,-267.8367"/>
<text text-anchor="middle" x="940.7294" y="-280.6" font-family="Times,serif" font-size="14.00" fill="#000000">≥8.7</text>
</g>
<!-- _5296940112 -->
<g id="node22" class="node">
<title>_5296940112</title>
<ellipse fill="none" stroke="#000000" cx="874.9794" cy="-118" rx="45.7732" ry="18"/>
<text text-anchor="middle" x="874.9794" y="-113.8" font-family="Times,serif" font-size="14.00" fill="#000000">-0.00034</text>
</g>
<!-- _5297563168&#45;&gt;_5296940112 -->
<g id="edge21" class="edge">
<title>_5297563168-&gt;_5296940112</title>
<path fill="none" stroke="#000000" d="M912.1032,-200.5632C904.4115,-183.4569 894.6996,-161.8576 887.1386,-145.042"/>
<polygon fill="#000000" stroke="#000000" points="890.26,-143.4492 882.9669,-135.7641 883.8757,-146.3199 890.26,-143.4492"/>
<text text-anchor="middle" x="926.1767" y="-169.4" font-family="Times,serif" font-size="14.00" fill="#000000">&lt;8700.0</text>
</g>
<!-- _5297371216 -->
<g id="node23" class="node">
<title>_5297371216</title>
<polygon fill="none" stroke="#000000" points="1069.2744,-147.4014 938.6845,-147.4014 938.6845,-88.5986 1069.2744,-88.5986 1069.2744,-147.4014"/>
<text text-anchor="middle" x="1003.9794" y="-130.6" font-family="Times,serif" font-size="14.00" fill="#000000">CRAIN:surface</text>
<text text-anchor="middle" x="1003.9794" y="-113.8" font-family="Times,serif" font-size="14.00" fill="#000000">100mi leftward grad</text>
<text text-anchor="middle" x="1003.9794" y="-97" font-family="Times,serif" font-size="14.00" fill="#000000">-1hr</text>
</g>
<!-- _5297563168&#45;&gt;_5297371216 -->
<g id="edge22" class="edge">
<title>_5297563168-&gt;_5297371216</title>
<path fill="none" stroke="#000000" d="M945.3239,-200.5632C955.0309,-186.8997 966.7744,-170.3696 977.1958,-155.7004"/>
<polygon fill="#000000" stroke="#000000" points="980.2154,-157.4934 983.1537,-147.3142 974.5088,-153.4393 980.2154,-157.4934"/>
<text text-anchor="middle" x="996.2294" y="-169.4" font-family="Times,serif" font-size="14.00" fill="#000000">≥8700.0</text>
</g>
<!-- _5296940512 -->
<g id="node24" class="node">
<title>_5296940512</title>
<ellipse fill="none" stroke="#000000" cx="957.9794" cy="-18" rx="32.5309" ry="18"/>
<text text-anchor="middle" x="957.9794" y="-13.8" font-family="Times,serif" font-size="14.00" fill="#000000">0.034</text>
</g>
<!-- _5297371216&#45;&gt;_5296940512 -->
<g id="edge23" class="edge">
<title>_5297371216-&gt;_5296940512</title>
<path fill="none" stroke="#000000" d="M990.4267,-88.5376C984.0717,-74.7223 976.552,-58.3751 970.3526,-44.8982"/>
<polygon fill="#000000" stroke="#000000" points="973.4662,-43.2916 966.1073,-35.6693 967.1067,-46.2169 973.4662,-43.2916"/>
<text text-anchor="middle" x="997.1767" y="-58.2" font-family="Times,serif" font-size="14.00" fill="#000000">&lt;0.73</text>
</g>
<!-- _5296940592 -->
<g id="node25" class="node">
<title>_5296940592</title>
<ellipse fill="none" stroke="#000000" cx="1049.9794" cy="-18" rx="40.6167" ry="18"/>
<text text-anchor="middle" x="1049.9794" y="-13.8" font-family="Times,serif" font-size="14.00" fill="#000000">-0.0001</text>
</g>
<!-- _5297371216&#45;&gt;_5296940592 -->
<g id="edge24" class="edge">
<title>_5297371216-&gt;_5296940592</title>
<path fill="none" stroke="#000000" d="M1017.5321,-88.5376C1023.8872,-74.7223 1031.4069,-58.3751 1037.6063,-44.8982"/>
<polygon fill="#000000" stroke="#000000" points="1040.8521,-46.2169 1041.8515,-35.6693 1034.4927,-43.2916 1040.8521,-46.2169"/>
<text text-anchor="middle" x="1052.2294" y="-58.2" font-family="Times,serif" font-size="14.00" fill="#000000">≥0.73</text>
</g>
<!-- _5297564032 -->
<g id="node28" class="node">
<title>_5297564032</title>
<polygon fill="none" stroke="#000000" points="1218.111,-369.8014 1029.8479,-369.8014 1029.8479,-310.9986 1218.111,-310.9986 1218.111,-369.8014"/>
<text text-anchor="middle" x="1123.9794" y="-353" font-family="Times,serif" font-size="14.00" fill="#000000">SOILW:0-0.1 m below ground</text>
<text text-anchor="middle" x="1123.9794" y="-336.2" font-family="Times,serif" font-size="14.00" fill="#000000">100mi mean</text>
<text text-anchor="middle" x="1123.9794" y="-319.4" font-family="Times,serif" font-size="14.00" fill="#000000">3hr max</text>
</g>
<!-- _5297564320&#45;&gt;_5297564032 -->
<g id="edge27" class="edge">
<title>_5297564320-&gt;_5297564032</title>
<path fill="none" stroke="#000000" d="M1193.282,-422.3835C1181.7162,-408.7013 1167.8046,-392.2442 1155.4902,-377.6766"/>
<polygon fill="#000000" stroke="#000000" points="1157.967,-375.1849 1148.8382,-369.8074 1152.6211,-379.704 1157.967,-375.1849"/>
<text text-anchor="middle" x="1189.6767" y="-391.8" font-family="Times,serif" font-size="14.00" fill="#000000">&lt;4.0</text>
</g>
<!-- _5297157424 -->
<g id="node29" class="node">
<title>_5297157424</title>
<ellipse fill="none" stroke="#000000" cx="1273.9794" cy="-340.4" rx="37.6864" ry="18"/>
<text text-anchor="middle" x="1273.9794" y="-336.2" font-family="Times,serif" font-size="14.00" fill="#000000">0.0062</text>
</g>
<!-- _5297564320&#45;&gt;_5297157424 -->
<g id="edge28" class="edge">
<title>_5297564320-&gt;_5297157424</title>
<path fill="none" stroke="#000000" d="M1232.6928,-422.3835C1241.3072,-405.2778 1252.1059,-383.8347 1260.4985,-367.1692"/>
<polygon fill="#000000" stroke="#000000" points="1263.7554,-368.4834 1265.1273,-357.9778 1257.5035,-365.3349 1263.7554,-368.4834"/>
<text text-anchor="middle" x="1265.7294" y="-391.8" font-family="Times,serif" font-size="14.00" fill="#000000">≥4.0</text>
</g>
<!-- _5297565328 -->
<g id="node32" class="node">
<title>_5297565328</title>
<polygon fill="none" stroke="#000000" points="1510.8296,-361.0019 1329.1293,-361.0019 1329.1293,-319.7981 1510.8296,-319.7981 1510.8296,-361.0019"/>
<text text-anchor="middle" x="1419.9794" y="-344.6" font-family="Times,serif" font-size="14.00" fill="#000000">WIND:850-300 mb</text>
<text text-anchor="middle" x="1419.9794" y="-327.8" font-family="Times,serif" font-size="14.00" fill="#000000">prob &lt;5, 100mi leftward grad</text>
</g>
<!-- _5297565616&#45;&gt;_5297565328 -->
<g id="edge31" class="edge">
<title>_5297565616-&gt;_5297565328</title>
<path fill="none" stroke="#000000" d="M1419.9794,-422.3835C1419.9794,-406.803 1419.9794,-387.6242 1419.9794,-371.7347"/>
<polygon fill="#000000" stroke="#000000" points="1423.4795,-371.3444 1419.9794,-361.3444 1416.4795,-371.3445 1423.4795,-371.3444"/>
<text text-anchor="middle" x="1436.1767" y="-391.8" font-family="Times,serif" font-size="14.00" fill="#000000">&lt;98.0</text>
</g>
<!-- _5297157824 -->
<g id="node33" class="node">
<title>_5297157824</title>
<ellipse fill="none" stroke="#000000" cx="1565.9794" cy="-340.4" rx="37.6864" ry="18"/>
<text text-anchor="middle" x="1565.9794" y="-336.2" font-family="Times,serif" font-size="14.00" fill="#000000">0.0016</text>
</g>
<!-- _5297565616&#45;&gt;_5297157824 -->
<g id="edge32" class="edge">
<title>_5297565616-&gt;_5297157824</title>
<path fill="none" stroke="#000000" d="M1458.3392,-422.3835C1483.2114,-403.4398 1515.0677,-379.1766 1537.6539,-361.974"/>
<polygon fill="#000000" stroke="#000000" points="1539.9878,-364.5959 1545.8225,-355.7524 1535.7464,-359.0272 1539.9878,-364.5959"/>
<text text-anchor="middle" x="1521.2294" y="-391.8" font-family="Times,serif" font-size="14.00" fill="#000000">≥98.0</text>
</g>
<!-- _5297157264 -->
<g id="node30" class="node">
<title>_5297157264</title>
<ellipse fill="none" stroke="#000000" cx="1123.9794" cy="-229.2" rx="40.6167" ry="18"/>
<text text-anchor="middle" x="1123.9794" y="-225" font-family="Times,serif" font-size="14.00" fill="#000000">-0.0031</text>
</g>
<!-- _5297564032&#45;&gt;_5297157264 -->
<g id="edge29" class="edge">
<title>_5297564032-&gt;_5297157264</title>
<path fill="none" stroke="#000000" d="M1123.9794,-311.1835C1123.9794,-294.6086 1123.9794,-273.9615 1123.9794,-257.5344"/>
<polygon fill="#000000" stroke="#000000" points="1127.4795,-257.434 1123.9794,-247.434 1120.4795,-257.434 1127.4795,-257.434"/>
<text text-anchor="middle" x="1140.1767" y="-280.6" font-family="Times,serif" font-size="14.00" fill="#000000">&lt;0.41</text>
</g>
<!-- _5297157344 -->
<g id="node31" class="node">
<title>_5297157344</title>
<ellipse fill="none" stroke="#000000" cx="1219.9794" cy="-229.2" rx="37.6864" ry="18"/>
<text text-anchor="middle" x="1219.9794" y="-225" font-family="Times,serif" font-size="14.00" fill="#000000">0.0015</text>
</g>
<!-- _5297564032&#45;&gt;_5297157344 -->
<g id="edge30" class="edge">
<title>_5297564032-&gt;_5297157344</title>
<path fill="none" stroke="#000000" d="M1149.2023,-311.1835C1164.5749,-293.377 1184.005,-270.8704 1198.6163,-253.9456"/>
<polygon fill="#000000" stroke="#000000" points="1201.4777,-255.9871 1205.3632,-246.1305 1196.1791,-251.4128 1201.4777,-255.9871"/>
<text text-anchor="middle" x="1197.2294" y="-280.6" font-family="Times,serif" font-size="14.00" fill="#000000">≥0.41</text>
</g>
<!-- _5297157504 -->
<g id="node34" class="node">
<title>_5297157504</title>
<ellipse fill="none" stroke="#000000" cx="1335.9794" cy="-229.2" rx="37.6864" ry="18"/>
<text text-anchor="middle" x="1335.9794" y="-225" font-family="Times,serif" font-size="14.00" fill="#000000">0.0003</text>
</g>
<!-- _5297565328&#45;&gt;_5297157504 -->
<g id="edge33" class="edge">
<title>_5297565328-&gt;_5297157504</title>
<path fill="none" stroke="#000000" d="M1404.3765,-319.7447C1390.4898,-301.3613 1370.1284,-274.4068 1355.233,-254.6881"/>
<polygon fill="#000000" stroke="#000000" points="1357.8383,-252.3303 1349.018,-246.4606 1352.2528,-256.5496 1357.8383,-252.3303"/>
<text text-anchor="middle" x="1402.507" y="-280.6" font-family="Times,serif" font-size="14.00" fill="#000000">&lt;-14.0</text>
</g>
<!-- _5297565184 -->
<g id="node35" class="node">
<title>_5297565184</title>
<polygon fill="none" stroke="#000000" points="1514.7744,-258.6014 1391.1845,-258.6014 1391.1845,-199.7986 1514.7744,-199.7986 1514.7744,-258.6014"/>
<text text-anchor="middle" x="1452.9794" y="-241.8" font-family="Times,serif" font-size="14.00" fill="#000000">HGT:500 mb</text>
<text text-anchor="middle" x="1452.9794" y="-225" font-family="Times,serif" font-size="14.00" fill="#000000">50mi leftward grad</text>
<text text-anchor="middle" x="1452.9794" y="-208.2" font-family="Times,serif" font-size="14.00" fill="#000000">3hr min</text>
</g>
<!-- _5297565328&#45;&gt;_5297565184 -->
<g id="edge34" class="edge">
<title>_5297565328-&gt;_5297565184</title>
<path fill="none" stroke="#000000" d="M1426.1091,-319.7447C1430.3784,-305.3585 1436.2054,-285.7233 1441.342,-268.4145"/>
<polygon fill="#000000" stroke="#000000" points="1444.7799,-269.132 1444.2696,-258.5494 1438.0692,-267.1404 1444.7799,-269.132"/>
<text text-anchor="middle" x="1460.5597" y="-280.6" font-family="Times,serif" font-size="14.00" fill="#000000">≥-14.0</text>
</g>
<!-- _5297564896 -->
<g id="node36" class="node">
<title>_5297564896</title>
<polygon fill="none" stroke="#000000" points="1467.1149,-147.4014 1288.844,-147.4014 1288.844,-88.5986 1467.1149,-88.5986 1467.1149,-147.4014"/>
<text text-anchor="middle" x="1377.9794" y="-130.6" font-family="Times,serif" font-size="14.00" fill="#000000">CIN:180-0 mb above ground</text>
<text text-anchor="middle" x="1377.9794" y="-113.8" font-family="Times,serif" font-size="14.00" fill="#000000">100mi mean</text>
<text text-anchor="middle" x="1377.9794" y="-97" font-family="Times,serif" font-size="14.00" fill="#000000">3hr mean</text>
</g>
<!-- _5297565184&#45;&gt;_5297564896 -->
<g id="edge35" class="edge">
<title>_5297565184-&gt;_5297564896</title>
<path fill="none" stroke="#000000" d="M1433.2741,-199.9835C1424.2169,-186.5547 1413.3568,-170.4528 1403.6681,-156.0878"/>
<polygon fill="#000000" stroke="#000000" points="1406.307,-153.7409 1397.8136,-147.4074 1400.5036,-157.6551 1406.307,-153.7409"/>
<text text-anchor="middle" x="1435.007" y="-169.4" font-family="Times,serif" font-size="14.00" fill="#000000">&lt;-6.8</text>
</g>
<!-- _5297157744 -->
<g id="node37" class="node">
<title>_5297157744</title>
<ellipse fill="none" stroke="#000000" cx="1526.9794" cy="-118" rx="42.3433" ry="18"/>
<text text-anchor="middle" x="1526.9794" y="-113.8" font-family="Times,serif" font-size="14.00" fill="#000000">0.00025</text>
</g>
<!-- _5297565184&#45;&gt;_5297157744 -->
<g id="edge36" class="edge">
<title>_5297565184-&gt;_5297157744</title>
<path fill="none" stroke="#000000" d="M1472.4221,-199.9835C1483.9118,-182.7179 1498.342,-161.0335 1509.4755,-144.3032"/>
<polygon fill="#000000" stroke="#000000" points="1512.6557,-145.8419 1515.282,-135.5778 1506.8281,-141.9639 1512.6557,-145.8419"/>
<text text-anchor="middle" x="1513.0597" y="-169.4" font-family="Times,serif" font-size="14.00" fill="#000000">≥-6.8</text>
</g>
<!-- _5297157584 -->
<g id="node38" class="node">
<title>_5297157584</title>
<ellipse fill="none" stroke="#000000" cx="1331.9794" cy="-18" rx="45.7732" ry="18"/>
<text text-anchor="middle" x="1331.9794" y="-13.8" font-family="Times,serif" font-size="14.00" fill="#000000">-0.00014</text>
</g>
<!-- _5297564896&#45;&gt;_5297157584 -->
<g id="edge37" class="edge">
<title>_5297564896-&gt;_5297157584</title>
<path fill="none" stroke="#000000" d="M1364.4267,-88.5376C1358.1143,-74.815 1350.6529,-58.5944 1344.4776,-45.1699"/>
<polygon fill="#000000" stroke="#000000" points="1347.602,-43.5868 1340.2431,-35.9646 1341.2425,-46.5122 1347.602,-43.5868"/>
<text text-anchor="middle" x="1377.007" y="-58.2" font-family="Times,serif" font-size="14.00" fill="#000000">&lt;-130.0</text>
</g>
<!-- _5297157664 -->
<g id="node39" class="node">
<title>_5297157664</title>
<ellipse fill="none" stroke="#000000" cx="1423.9794" cy="-18" rx="27.8725" ry="18"/>
<text text-anchor="middle" x="1423.9794" y="-13.8" font-family="Times,serif" font-size="14.00" fill="#000000">0.13</text>
</g>
<!-- _5297564896&#45;&gt;_5297157664 -->
<g id="edge38" class="edge">
<title>_5297564896-&gt;_5297157664</title>
<path fill="none" stroke="#000000" d="M1393.3051,-88.7095C1396.2648,-82.8186 1399.2817,-76.6423 1401.9794,-70.8 1405.8096,-62.5055 1409.7281,-53.3535 1413.1768,-45.0316"/>
<polygon fill="#000000" stroke="#000000" points="1416.429,-46.3256 1416.9761,-35.7449 1409.9502,-43.675 1416.429,-46.3256"/>
<text text-anchor="middle" x="1435.0597" y="-58.2" font-family="Times,serif" font-size="14.00" fill="#000000">≥-130.0</text>
</g>
</g>
</svg>